<?xml version="1.0" standalone="no"?>
<!DOCTYPE svg PUBLIC "-//W3C//DTD SVG 1.1//EN" "http://www.w3.org/Graphics/SVG/1.1/DTD/svg11.dtd" >
<!--
2013-9-30: Created.
-->
<svg>
<metadata>
Created by iconfont
</metadata>
<defs>

<font id="iconfont" horiz-adv-x="1024" >
  <font-face
    font-family="iconfont"
    font-weight="500"
    font-stretch="normal"
    units-per-em="1024"
    ascent="896"
    descent="-128"
  />
    <missing-glyph />
    
    <glyph glyph-name="x" unicode="x" horiz-adv-x="1001"
d="M281 543q-27 -1 -53 -1h-83q-18 0 -36.5 -6t-32.5 -18.5t-23 -32t-9 -45.5v-76h912v41q0 16 -0.5 30t-0.5 18q0 13 -5 29t-17 29.5t-31.5 22.5t-49.5 9h-133v-97h-438v97zM955 310v-52q0 -23 0.5 -52t0.5 -58t-10.5 -47.5t-26 -30t-33 -16t-31.5 -4.5q-14 -1 -29.5 -0.5
t-29.5 0.5h-32l-45 128h-439l-44 -128h-29h-34q-20 0 -45 1q-25 0 -41 9.5t-25.5 23t-13.5 29.5t-4 30v167h911zM163 247q-12 0 -21 -8.5t-9 -21.5t9 -21.5t21 -8.5q13 0 22 8.5t9 21.5t-9 21.5t-22 8.5zM316 123q-8 -26 -14 -48q-5 -19 -10.5 -37t-7.5 -25t-3 -15t1 -14.5
t9.5 -10.5t21.5 -4h37h67h81h80h64h36q23 0 34 12t2 38q-5 13 -9.5 30.5t-9.5 34.5q-5 19 -11 39h-368zM336 498v228q0 11 2.5 23t10 21.5t20.5 15.5t34 6h188q31 0 51.5 -14.5t20.5 -52.5v-227h-327z" />
    

    
    <glyph glyph-name="icon07" unicode="&#58916;" d="M315.649-106.805c-8.041 0-16.124 2.73-22.755 8.314-14.932 12.577-16.841 34.879-4.265 49.81l374.452 444.557-357.171 427.131c-12.525 14.977-10.537 37.269 4.441 49.794 14.977 12.524 37.269 10.535 49.793-4.442l376.203-449.89c11.007-13.162 10.973-32.327-0.080-45.45l-393.563-467.249c-6.993-8.302-16.989-12.576-27.054-12.577z"  horiz-adv-x="1024" />

    
    <glyph glyph-name="shijian" unicode="&#59004;" d="M511.99865088 833.97931406C263.46986386 833.97931406 62.00359737 632.51770489 62.00359737 384c0-248.51860401 201.46716563-449.97841494 449.99505351-449.97841494 248.52788789 0 449.99775175 201.45981006 449.99775175 449.97841494C961.99640263 632.51770489 760.52653877 833.97931406 511.99865088 833.97931406zM511.99865088-25.07234883000001c-225.93697822 0-409.08821045 183.16261582-409.08821045 409.07144971 0 225.94930664 183.15123223 409.07144971 409.08821045 409.07144971 225.93697822 0 409.08821045-183.12394219 409.08821045-409.07144971C921.08686133 158.09206523 737.93562911-25.07234883000001 511.99865088-25.07234883000001zM736.99752675 383.99820088L532.45162197 383.99820088 532.45162197 649.89572227c0 11.30443594-9.16606143 20.45303261-20.45297109 20.45303261-11.28511143 0-20.45477021-9.14769756-20.45477022-20.45303261L491.54388066 363.54696738999996c0-11.28644737 9.16965878-20.45393262 20.45477022-20.45393262l224.99887587 0c11.28511143 0 20.45477021 9.16748438 20.45477022 20.45393261C757.45049785 374.84960420000004 748.28263818 383.99820088 736.99752675 383.99820088z"  horiz-adv-x="1024" />

    
    <glyph glyph-name="mima" unicode="&#58912;" d="M834.77587436 540.30821453l-83.92977066 0c0 134.80391111-102.90729718 237.76582163-234.28634548 237.76582162s-234.26085925-102.96191052-234.26085926-237.76582162L198.37155555 540.30821453c0 161.7634797 142.72891259 321.69316503 318.18820267 321.69316503C692.02026192 862.00259319 834.77587436 702.07169423 834.77587436 540.30821453zM884.355072 402.45930667c0 46.3460883-37.58368237 83.92855703-83.92734342 83.92855703L240.34857718 486.3878637c-46.3460883 0-83.92855703-37.58246875-83.92855703-83.92855703l0-398.34237156c0-46.31817482 37.58246875-83.90185718 83.92855703-83.90185718l560.10585126 0c46.31696118 0 83.90064355 37.58368237 83.90064356 83.92855704L884.355072 402.45930667zM587.78889481 91.01160297000001c0-34.7789843-28.17441185-62.95339615-62.95218251-62.95339615l-8.92381867 0c-34.75349808 0-62.9266963 28.17441185-62.9266963 62.95339615L452.98619733 261.69890133c0 34.75349808 28.17319822 62.9266963 62.95339615 62.9266963l8.92381867 0c34.75107082 0 62.92548267-28.17319822 62.92548266-62.95339615L587.78889481 91.01160297000001z"  horiz-adv-x="1024" />

    
    <glyph glyph-name="chenggong" unicode="&#58944;" d="M511.47466949 857.86135151c-262.05891001 0-474.50829377-212.44938377-474.50829376-474.50829377S249.4157607-91.15399327 511.47466949-91.15399327c262.05766724 0 474.50705101 212.44938377 474.50705101 474.50829377S773.53357949 857.86135151 511.47466949 857.86135151L511.47466949 857.86135151zM511.47466949-23.838489399999958c-224.54190809 0-407.19154715 182.67571997-407.19154714 407.19154714 0 224.54190809 182.66951103 407.19154715 407.19154714 407.19154715 224.51582718 0 407.1903056-182.67075258 407.1903056-407.19154715C918.66621785 158.81239242000004 736.01657757-23.838489399999958 511.47466949-23.838489399999958L511.47466949-23.838489399999958zM434.07606124 279.02601171000003l-134.60616958 107.68270041-60.58059973-40.38706731 228.83893248-235.57880399c0 0 134.60616958 296.13580713 316.33306662 437.49550884l-20.19104936 26.92843657C763.86899892 575.16678745 481.1967887 373.26622628999996 434.07606124 279.02601171000003L434.07606124 279.02601171000003zM434.07606124 279.02601171000003"  horiz-adv-x="1024" />

    
    <glyph glyph-name="zhanghu" unicode="&#58896;" d="M768.09121155 564.42769949c0-140.44843003-113.44046511-254.30246906-253.37887037-254.30246906s-253.37887037 113.85403903-253.37887036 254.30246906c0 140.44550695 113.44046511 254.30393058 253.37887036 254.30393058S768.09121155 704.87320643 768.09121155 564.42769949L768.09121155 564.42769949zM723.84468051 298.13013459c-59.05188176-46.80250366-132.24710417-72.7728806-209.13087779-72.7728806-77.77522115 0-151.68944826 26.57977696-211.01168785 74.27665252-156.3600543-57.58903021-226.18092549-258.91754201-226.18092549-350.83171922l869.92944407 0C947.45063475 39.927212680000025 877.09051069 239.82210100999998 723.84468051 298.13013459L723.84468051 298.13013459zM723.84468051 298.13013459"  horiz-adv-x="1024" />

    
    <glyph glyph-name="shouji1" unicode="&#59041;" d="M791.135-65.04281249999997h-558.27c-40.2196875 0-72.8184375 32.6221875-72.8184375 72.8184375v752.4496875c0 40.1953125 32.5978125 72.8184375 72.8184375 72.8184375h558.27c40.2196875 0 72.8184375-32.6221875 72.8184375-72.8184375v-752.4496875c0-40.1953125-32.5978125-72.8184375-72.8184375-72.8184375zM815.406875 735.9534375000001c0 26.7965625-21.748125 48.5446875-48.5446875 48.5446875h-509.7253125c-26.7965625 0-48.5446875-21.748125-48.5446875-48.5446875v-703.905c0-26.7965625 21.748125-48.5446875 48.5446875-48.5446875h509.7253125c26.7965625 0 48.5446875 21.748125 48.5446875 48.5446875v703.905zM596.954375 56.3203125h-169.9078125c-13.4221875 0-24.2728125 10.8496875-24.2728125 24.2728125s10.8496875 24.2728125 24.2728125 24.2728125h169.9078125c13.4221875 0 24.2728125-10.8496875 24.2728125-24.2728125s-10.8496875-24.2728125-24.2728125-24.2728125z"  horiz-adv-x="1024" />

    
    <glyph glyph-name="jinlingyingcaiwangtubiao14" unicode="&#59287;" d="M535.347 662.246c-6.758 3.123-14.746 2.099-20.454-2.714l-249.19-209.715-198.349 0c-10.598 0-19.2-8.602-19.2-19.2v-329.062c0-10.598 8.602-19.2 19.2-19.2h198.323l249.19-209.715c3.533-2.97 7.936-4.506 12.365-4.506 2.739 0 5.504 0.589 8.090 1.792 6.784 3.149 11.11 9.958 11.11 17.408v757.478c0 7.475-4.326 14.285-11.085 17.434zM508.032-71.45l-223.027 187.725c-4.301 3.635-9.677 4.89-14.848 4.198-0.461 0.026-0.87 0.282-1.357 0.282h-182.246v290.637h186.138c0.922 0 1.715 0.41 2.611 0.538 1.331 0.179 2.637 0.333 3.917 0.794 1.306 0.486 2.406 1.229 3.584 1.946 0.742 0.461 1.587 0.666 2.253 1.229l222.976 187.674v-675.021zM677.555 491.213c-8.090 6.835-20.198 5.786-27.059-2.304-6.835-8.115-5.811-20.224 2.304-27.059 57.882-48.794 91.085-120.141 91.085-195.789 0-72.909-31.232-142.592-85.709-191.13-7.91-7.066-8.602-19.2-1.562-27.11 3.789-4.275 9.062-6.426 14.362-6.426 4.531 0 9.088 1.613 12.774 4.864 62.643 55.834 98.56 135.962 98.56 219.802-0.026 87.014-38.195 169.062-104.755 225.152zM785.101 579.226c-9.114 5.325-20.89 2.304-26.291-6.81-5.376-9.139-2.33-20.89 6.81-26.291 98.842-58.163 160.256-165.478 160.256-280.038 0-113.946-60.902-220.979-158.95-279.296-9.114-5.427-12.109-17.203-6.682-26.317 3.584-6.042 9.984-9.395 16.512-9.395 3.354 0 6.733 0.87 9.805 2.688 109.645 65.203 177.741 184.883 177.741 312.294-0.026 128.128-68.685 248.115-179.2 313.165z"  horiz-adv-x="1024" />

    
    <glyph glyph-name="shibai" unicode="&#58939;" d="M506.67165969 800.66376281c233.17975219 0 422.87945156-189.70536938 422.87945156-422.88039656 0-233.17975219-189.69969938-422.88417656-422.87945156-422.88417656S83.79126313 144.59888906000003 83.79126313 377.78336625C83.79126313 610.96311844 273.49190656 800.66376281 506.67165969 800.66376281M506.67165969 848.56543594c-260.00620125 0-470.78679469-210.78059344-470.78679469-470.78679469 0-260.00525625 210.78059344-470.78112469 470.78679469-470.78112469 260.00525625 0 470.78584969 210.77586844 470.78584969 470.78584969C977.45750937 637.7895675 766.67691594 848.56543594 506.67165969 848.56543594L506.67165969 848.56543594 506.67165969 848.56543594zM305.58385437 467.84871844c0-16.1990625 6.6678675-32.29984594 18.1211775-43.75315594 11.45331-11.45331 27.55409344-18.1202325 43.74843094-18.1202325 16.1981175 0 32.29890094 6.6659775 43.75221094 18.1202325 11.45331 11.45331 18.1211775 27.55409344 18.1211775 43.75315594 0 16.1943375-6.6678675 32.29417594-18.1211775 43.74748593-11.45331 11.45331-27.55409344 18.1211775-43.75221094 18.1211775-16.1943375 0-32.29512094-6.6678675-43.74843094-18.1211775C312.25172281 500.14289438 305.58385437 484.04305594 305.58385437 467.84871844L305.58385437 467.84871844zM584.01646625 467.84871844c0-16.1990625 6.6659775-32.29984594 18.1202325-43.75315594 11.45331-11.45331 27.55409344-18.1202325 43.75315594-18.1202325 16.1933925 0 32.29417594 6.6659775 43.74748594 18.1202325s18.1211775 27.55409344 18.1211775 43.75315594c0 16.1943375-6.6678675 32.29417594-18.1211775 43.74748593-11.45331 11.45331-27.55409344 18.1211775-43.74748594 18.1211775-16.1990625 0-32.29984594-6.6678675-43.75315594-18.1211775C590.68244375 500.14289438 584.01646625 484.04305594 584.01646625 467.84871844L584.01646625 467.84871844zM673.20486594 127.82149125000001c-7.96534219 0-15.74546625 3.96424406-20.29371563 11.19249187-32.04375281 50.91808969-87.02909062 81.31377563-147.09848906 81.31377563-58.92690187 0-113.35752937-29.5281825-145.58461125-78.97491937-7.23297281-11.07531281-22.05801656-14.22308344-33.14655938-6.99388969-11.08570781 7.23297281-14.21079844 22.07124656-6.99010968 33.14183437 41.11662656 63.06880406 110.54995594 100.72770375 185.72222531 100.72770375 76.63606312 0 146.78380594-38.76832031 187.63205531-103.69876031 7.05247969-11.19816188 3.68641594-25.98257063-7.50796594-33.02276531C681.97345156 129.00273187000005 677.56411625 127.82149125000001 673.20486594 127.82149125000001L673.20486594 127.82149125000001z"  horiz-adv-x="1024" />

    
    <glyph glyph-name="iconfontzhizuobiaozhun20" unicode="&#58899;" d="M824.314587 236.892571c-24.52251 14.159488-52.374858 21.641903-80.546477 21.641903-27.841092 0-55.371098-7.237845-79.614246-20.929682-19.84907-11.211343-37.060057-26.565029-50.537-44.919049l-193.054901 111.457488c21.162995 37.141922 26.731828 80.291674 15.659655 121.618918-3.618411 13.501502-8.880251 26.28055-15.601326 38.125319l192.997596 111.425765c13.475919-18.355043 30.686906-33.706683 50.537-44.919049 24.242124-13.69286 51.77213-20.929682 79.614246-20.929682 28.17162 0 56.023968 7.482415 80.546477 21.640879 37.325094 21.549805 64.024176 56.344263 75.181283 97.975429 11.155061 41.632189 5.430686 85.11554-16.121166 122.440633-14.425547 24.985044-35.262108 45.652759-60.257385 59.771315-24.243147 13.69286-51.773154 20.930705-79.614246 20.930705-28.170596 0-56.022944-7.483438-80.545454-21.641903-71.864748-41.491996-99.739609-130.297578-67.075675-204.581422l-196.200544-113.275903c-11.059893 12.106736-24.031323 22.579251-38.641065 31.014364-24.52251 14.157441-52.374858 21.640879-80.546477 21.640879-27.840068 0-55.370075-7.236821-79.614246-20.930705-24.995277-14.117532-45.831838-34.786271-60.256362-59.772338-21.550829-37.325094-27.275203-80.808444-16.120143-122.438587s37.855166-76.426647 75.181283-97.976452c24.51944-14.156418 52.370765-21.639856 80.543408-21.640879 0.004093 0 0.005117 0 0.00921 0 27.836999 0 55.364959 7.236821 79.607082 20.928658 14.897292 8.414647 28.300556 19.170618 39.765679 31.765471l196.265012-113.311719c-14.778588-33.495882-17.709337-70.738088-8.098445-106.610086 11.156084-41.631166 37.85619-76.426647 75.181283-97.975429 24.51944-14.157441 52.371788-21.639856 80.544431-21.641903 0.00307 0 0.005117 0 0.008186 0 27.836999 0 55.364959 7.236821 79.608106 20.929682 24.994254 14.117532 45.830815 34.786271 60.256362 59.772338 21.551852 37.325094 27.276227 80.808444 16.121166 122.438587C888.338762 180.549332 861.638657 215.343789 824.314587 236.892571zM682.589748 776.57812c18.561751 10.717086 39.624463 16.382109 60.912301 16.382109 43.552935 0 84.117816-23.400966 105.867166-61.069891 16.306384-28.243251 20.638039-61.144592 12.196787-92.645027-8.44023-31.500435-28.64234-57.828057-56.885592-74.133418-18.561751-10.717086-39.625486-16.381086-60.913325-16.381086-43.552935 0-84.117816 23.399943-105.867166 61.068867C604.241332 668.1005 624.288924 742.917486 682.589748 776.57812zM280.229844 261.886825c-21.289885 0-42.35362 5.664-60.912301 16.380062-28.243251 16.306384-48.445362 42.634006-56.885592 74.134441-8.441253 31.499411-4.110621 64.400752 12.195763 92.64298 21.748327 37.669948 62.314231 61.070914 105.866143 61.070914 21.288862 0 42.352597-5.664 60.913325-16.381086 28.243251-16.305361 48.445362-42.632983 56.886615-74.133418 8.439206-31.500435 4.107551-64.403822-12.19781-92.645027C364.345614 285.283698 323.780733 261.882732 280.229844 261.886825zM849.370239 36.109662c-21.751397-37.670971-62.315254-61.071937-105.866143-61.069891-21.290909 0.001023-42.354644 5.665023-60.913325 16.381086-28.242228 16.307408-48.445362 42.634006-56.885592 74.134441s-4.109598 64.401776 12.195763 92.64298c21.74935 37.669948 62.315254 61.070914 105.867166 61.070914 21.288862 0 42.352597-5.665023 60.913325-16.381086 28.243251-16.306384 48.445362-42.634006 56.885592-74.134441C870.008278 97.25323 865.6756 64.352913 849.370239 36.109662z"  horiz-adv-x="1024" />

    
    <glyph glyph-name="zijin" unicode="&#59243;" d="M531.364319 831.826717c61.461929-1.260945 132.844731-20.795501 199.295278-58.344842 11.482415-6.483204 16.880955-17.662225 14.693638-29.58774-2.253472-12.306656-11.184417-21.060321-23.685341-23.043576-7.230498-1.145623-13.719898 1.108049-19.925491 4.635057-36.435896 20.667587-75.253378 34.980683-116.296751 43.273461C410.737704 804.060343 231.439668 713.742778 155.31628 552.122157c-30.799518-65.408853-42.614907-134.189819-35.85509-206.033509 16.232994-172.515834 146.189484-314.55813 316.954905-346.913992 207.766934-39.364311 409.178777 92.422538 455.508565 299.004675 21.46045 95.672934 8.06813 187.121731-38.533674 273.526549-4.452381 8.255203-9.035474 16.293753-6.871541 26.227018 2.590843 11.897733 11.68208 20.447337 23.840036 22.312472 10.95817 1.687856 22.152381-3.90915 28.181693-14.428617 16.488021-28.783885 29.599332-59.04197 39.293759-90.773056 75.934516-248.709175-74.550855-509.17458-327.906679-567.574784C370.763007-107.64871800000003 130.263465 41.66324799999995 73.806143 280.32543499999997 17.311247 519.135322 161.999149 758.023956 399.845888 818.649252 436.919952 828.10644 474.669758 832.419116 531.364319 831.826717L531.364319 831.826717zM481.27468 328.116033L481.27468 384.208003l-6.959282 0c-34.250378 0-68.499957-0.072551-102.749536 0.032178-18.951751 0.055562-31.425893 13.432493-29.614521 31.403508 1.444421 14.345474 13.520233 24.571341 29.526781 24.626903 30.185534 0.106528 60.376465 0.033977 90.561799 0.039373l7.879258 0c-2.148743 2.318828-3.409888 3.781236-4.77816 5.149708-37.887512 37.909098-75.812799 75.789615-113.678126 113.727293-10.409342 10.430928-12.386402 23.951161-5.431517 35.417587 8.653533 14.267527 27.604484 17.911056 40.886679 7.789719 2.143347-1.632493 4.059648-3.581572 5.97395-5.492476 37.362268-37.343481 74.728134-74.688761 112.016053-112.105592 1.478398-1.478398 2.22669-3.675708 3.316751-5.541643 0.815247 0.238039 1.6225 0.481474 2.436148 0.720511 1.284329 1.704844 2.386782 3.586968 3.875173 5.082554 37.733617 37.798173 75.553175 75.507606 113.22963 113.361141 8.061934 8.094912 17.396405 11.577351 28.452909 8.770653 21.134671-5.358967 27.949051-31.121699 12.480338-47.039507-11.322323-11.653299-22.948841-23.021192-34.443847-34.514399-26.542005-26.5492-53.079612-53.101997-79.666586-79.605627-1.472202-1.472202-3.399095-2.491711-5.121128-3.726673l0.990728-1.993049 5.929979 0c30.372607 0 60.758606 0.060759 91.138208-0.028581 15.513482-0.049167 26.457862-8.614959 29.475815-22.715999 3.188838-14.921883-7.157947-30.263281-22.207743-32.732607-3.033144-0.493066-6.161023-0.592398-9.245931-0.592398-33.474504-0.038374-66.953605-0.026782-100.42791-0.026782l-7.231297 0 0-56.098365 7.097988 0c35.024653 0 70.049107 0.089539 105.07376-0.055362 13.352947-0.055562 23.951161-9.045467 26.851794-22.140589 2.745738-12.384603-3.465251-25.579057-15.236869-30.738559-4.280498-1.876728-9.312086-2.790508-14.013499-2.81729-34.443847-0.228245-68.885695-0.127913-103.329543-0.127913l-6.827771 0 0-7.441754c0-34.832184 0.060759-69.667965-0.04377-104.492954-0.038374-12.014854-5.806463-20.839271-16.715267-25.617631-10.436324-4.567903-20.535077-2.99457-29.327316 4.368238-7.131165 5.980145-9.927069 13.96773-9.909881 23.186879 0.065356 34.249579 0.026782 68.499158 0.026782 102.748736l0 7.248286-6.339902 0c-35.211726 0-70.436644-0.066355-105.64917 0.04377-12.08021 0.038374-22.290087 7.446951-26.242208 18.48107-3.885965 10.846046-0.697127 23.092943 8.044946 30.63383 5.684746 4.905274 12.340633 6.787398 19.814566 6.760616 34.443847-0.104729 68.892891-0.04377 103.334939-0.04377C476.572468 328.116033 478.666848 328.116033 481.27468 328.116033L481.27468 328.116033z"  horiz-adv-x="1024" />

    
    <glyph glyph-name="yanzhengma" unicode="&#58972;" d="M936.2065625 528.9853125c-4.580625-65.895-3.7509375-132.7246875-14.956875-197.4740625-19.15875-110.7084375-79.8103125-198.3028125-169.92-265.12875-62.743125-46.53-125.9803125-92.383125-189.0253125-138.51-28.1334375-20.5846875-57.174375-21.886875-84.0178125-2.169375-71.31 52.381875-143.6615625 103.4821875-212.9334375 158.46-88.8215625 70.4953125-144.2090625 163.9865625-153.5146875 276.703125-8.6428125 104.7159375-5.180625 210.4903125-5.41125 315.7978125-0.0534375 22.9340625 14.4384375 41.195625 36.8709375 48.43875 119.720625 38.6578125 239.4984375 77.1684375 359.8528125 113.7834375 15.196875 4.62375 34.805625 0.793125 50.784375-4.1971875 111.043125-34.6715625 221.6915625-70.5965625 332.4-106.3321875 30.67125-9.9009375 45.37875-30.2821875 45.5128125-62.44125 0.1884375-45.5465625 0.0478125-91.0940625 0.0478125-136.63875 1.4390625-0.095625 2.8734375-0.196875 4.3078125-0.2915625zM147.854375 527.4646875000001c0-35.1646875-0.56625-70.34625 0.099375-105.5015625 2.4028125-126.69 53.998125-230.385 151.93125-309.2259375 62.0278125-49.9359375 128.5528125-94.2590625 192.316875-142.0790625 19.125-14.3428125 34.5665625-14.030625 53.5190625 0.25875 59.8171875 45.105 121.0209375 88.3678125 180.823125 133.4878125 94.5609375 71.3484375 152.4253125 165.3721875 160.0284375 284.3428125 5.4984375 85.970625 2.44125 172.490625 3.09375 258.7715625 0.1715625 23.1253125-11.5940625 36.005625-33.6834375 43.018125-104.77875 33.2521875-209.1346875 67.8384375-314.0465625 100.6528125-13.55625 4.2403125-30.6421875 4.734375-44.0934375 0.541875-105.718125-32.9596875-210.841875-67.8234375-316.4090625-101.270625-23.364375-7.4015625-33.894375-21.4809375-33.6553125-45.5034375 0.39375-39.1678125 0.1096875-78.3328125 0.07125-117.4940625zM519.0659375 575.9137499999999c66.3309375 0.0140625 132.669375 0.0759375 198.9984375-0.0384375 12.7640625-0.0234375 27.9271875 1.63125 26.7909375-17.98875-0.9346875-16.1128125-10.2984375-23.17875-27.189375-22.93875-48.740625 0.6965625-97.5496875-1.0696875-146.2284375 0.793125-24.564375 0.9403125-31.8328125-7.4784375-31.6171875-31.1840625 0.91125-99.890625 0.6009375-199.8009375 0.0140625-299.694375-0.0515625-9.37875-2.7290625-21.024375-8.7159375-27.294375-4.1109375-4.3078125-18.103125-4.2215625-23.9184375-0.388125-5.41125 3.564375-8.0784375 14.67375-8.1215625 22.4784375-0.5128125 101.4984375-0.316875 202.9940625-0.3609375 304.4915625-0.0140625 30.834375-0.1490625 30.969375-30.60375 31.0153125-46.351875 0.0759375-92.709375 0.01875-139.06125 0.0253125-4.798125 0-11.1665625-1.914375-14.0840625 0.436875-8.240625 6.6440625-19.3265625 14.011875-21.4996875 22.981875-3.64125 15.0290625 9.6271875 17.3015625 21.796875 17.2978125 67.933125-0.0253125 135.8615625-0.0046875 203.795625 0.0065625z"  horiz-adv-x="1024" />

    
    <glyph glyph-name="shibai2" unicode="&#58884;" d="M512.0218304-92.46773867000002c-262.76647573 0-476.51249173 213.746016-476.51249173 476.46773867S249.25535467 860.46773867 512.0218304 860.46773867c262.72172373 0 476.46773867-213.746016 476.46773867-476.46773867S774.74355413-92.46773867000002 512.0218304-92.46773867000002zM512.0218304 791.9547967999999c-224.9865568 0-407.9995488-183.012992-407.9995488-407.9547968s183.012992-407.9547968 407.9995488-407.9547968c224.94180373 0 407.9547968 183.012992 407.9547968 407.9547968S736.96363413 791.9547967999999 512.0218304 791.9547967999999zM318.74957973 156.51602987c-8.78678933 0-17.52991787 3.34552853-24.21988373 10.03658773-13.38102507 13.38102507-13.38102507 35.05983467 0 48.44085973L681.02944533 601.49322667c13.38102507 13.38102507 35.05983467 13.38102507 48.44085867 0 13.38102507-13.38102507 13.38102507-35.05983467 0-48.44085974L342.97055467 166.55261759999996C336.27949653 159.86155946999997 327.53746027 156.51602987 318.74957973 156.51602987zM705.24932907 156.51602987c-8.78678933 0-17.52991787 3.34552853-24.21988374 10.03658773L294.529696 553.0523669300001c-13.38102507 13.38102507-13.38102507 35.05983467 0 48.44085974 13.38102507 13.38102507 35.05983467 13.38102507 48.44085867 0L729.470304 214.99238506999995c13.38102507-13.38102507 13.38102507-35.05983467 0-48.44085867C722.77924587 159.86155946999997 714.0372096 156.51602987 705.24932907 156.51602987z"  horiz-adv-x="1024" />

    
    <glyph glyph-name="tongzhi" unicode="&#58887;" d="M556.8 759.46666667L320 618.66666667l0-448 236.8-140.8c44.8-25.6 83.2-6.4 83.2 44.8l0 640C640 765.86666667 601.6 791.46666667 556.8 759.46666667zM64 522.66666667l0-256C64 215.46666667 108.8 170.66666667000004 160 170.66666667000004L256 170.66666667000004 256 618.66666667 160 618.66666667C108.8 618.66666667 64 573.86666667 64 522.66666667zM928 426.66666667l-128 0C780.8 426.66666667 768 413.86666667 768 394.66666667 768 375.46666667 780.8 362.66666667000004 800 362.66666667000004l128 0C947.2 362.66666667000004 960 375.46666667 960 394.66666667 960 413.86666667 947.2 426.66666667 928 426.66666667zM908.8 100.26666666999995l-108.8 64c-12.8 6.4-32 6.4-44.8-12.8-6.4-12.8-6.4-32 12.8-44.8l108.8-64c12.8-6.4 32-6.4 44.8 12.8C928 68.26666666999995 921.6 93.86666666999997 908.8 100.26666666999995zM793.6 625.06666667l108.8 64c12.8 6.4 19.2 25.6 12.8 44.8C908.8 746.66666667 889.6 753.06666667 876.8 746.66666667l-108.8-64c-12.8-6.4-19.2-25.6-12.8-44.8C761.6 625.06666667 780.8 618.66666667 793.6 625.06666667z"  horiz-adv-x="1024" />

    
    <glyph glyph-name="1111131" unicode="&#58911;" d="M522.31751112 306.30115555L522.31751112 306.30115555c17.47626667 0 29.12711111-11.65084445 29.1271111-29.12711111l0-116.50844444c0-17.47626667-11.65084445-29.12711111-29.1271111-29.12711112l0 0c-17.47626667 0-29.12711111 11.65084445-29.12711113 29.12711112l0 116.50844444C493.19039999 294.65031110999996 504.84124445 306.30115555 522.31751112 306.30115555L522.31751112 306.30115555 522.31751112 306.30115555zM842.71573333 422.8096l0-378.65244445c0-20.38897778-5.82542222-29.12711111-29.12711112-29.12711111l-582.54222221 0c-23.30168889 0-29.12711111 8.73813333-29.12711111 29.12711111l0 378.65244445L842.71573333 422.8096M900.96995556 481.06382222l-757.3048889 0 0-436.90666667c0-55.34151111 32.03982222-87.38133333 87.38133334-87.38133333 0 0 565.06595555 0 582.54222221 0 58.25422222 0 87.38133333 32.03982222 87.38133335 87.38133333L900.96995556 475.2384l0 0L900.96995556 481.06382222 900.96995556 481.06382222zM813.58862221 481.06382222l-58.25422221 0 0 58.25422222c0 133.98471111-104.8576 233.01688889-233.01688888 233.01688889-131.072 0-233.01688889-104.8576-233.0168889-233.01688889l0-58.25422222-58.25422222 0 0 58.25422222c0 163.11182222 128.15928889 291.27111111 291.27111112 291.27111111 160.19911111 0 291.27111111-122.33386667 291.27111109-291.27111111L813.58862221 481.06382222 813.58862221 481.06382222 813.58862221 481.06382222z"  horiz-adv-x="1024" />

    
    <glyph glyph-name="chenggong2" unicode="&#58955;" d="M512 831.251324C264.989233 831.251324 64.748676 631.010767 64.748676 384S264.989233-63.251323999999954 512-63.251323999999954 959.251324 136.99025700000004 959.251324 384 759.009743 831.251324 512 831.251324z m275.928377-299.523771L450.265984 194.06516c-11.655458-11.655458-30.552853-11.655458-42.207288 0a30.470989 30.470989 0 0 0-1.911536 2.105964L236.071623 366.24768400000005c-11.655458 11.655458-11.655458 30.552853 0 42.207288s30.552853 11.655458 42.207288 0L429.259554 257.474328l316.460512 316.460512c11.655458 11.655458 30.552853 11.655458 42.207287 0s11.656481-30.55183 0.001024-42.207287z"  horiz-adv-x="1024" />

    
    <glyph glyph-name="liuyan" unicode="&#58881;" d="M370.26304 89.63754667H268.55424c-82.07872 0-148.61312 66.54976-148.61312 148.66432V624.0170666700001c0 82.13504 66.58048 148.6592 148.8896 148.6592h486.33856c82.24256 0 148.89472-66.55488 148.89472-148.6592v-385.7152c0-82.2016-66.4576-148.66432-148.85376-148.66432h-127.20128c-6.784 0-13.27104-2.7648-17.9712-7.66464l-133.38112-138.98752a24.9088 24.9088 0 0 1 35.9424-34.49856l133.38624 138.99264-17.9712-7.65952h127.19616c109.91616 0 198.67136 88.76544 198.67136 198.48192V624.0170666700001c0 109.63456-88.97024 198.48192-198.71232 198.48192H268.83072c-109.81376 0-198.71232-88.81664-198.71232-198.48192v-385.7152c0-109.62944 88.83712-198.48192 198.43584-198.48192h101.7088a24.91392 24.91392 0 0 1 0 49.8176z m-84.1216 409.0368h382.22336a24.9088 24.9088 0 1 1 0 49.8176H286.14144a24.9088 24.9088 0 1 1 0-49.8176z m0-155.68896h451.71712a24.9088 24.9088 0 1 1 0 49.8176H286.14144a24.9088 24.9088 0 1 1 0-49.8176z m0 0"  horiz-adv-x="1024" />

    
    <glyph glyph-name="zuanshi" unicode="&#58882;" d="M295.28042347 822.1121696h624.1523808v-329.4137568H295.28042347zM607.35661333 510.03597867h468.11428587L607.35661333-62.10370346000002zM798.06984107 510.03597867h346.75132266L607.35661333-62.10370346000002zM798.06984107 510.03597867h346.75132266L919.43280427 822.1121696zM607.35661333 510.03597867H139.24232853l468.1142848-572.13968213zM416.64338667 510.03597867H69.892064l537.46454933-572.13968213zM416.64338667 510.03597867H69.892064L295.28042347 822.1121696zM798.06984107 510.03597867H416.64338667L607.35661333 804.77460267z"  horiz-adv-x="1202" />

    
    <glyph glyph-name="cuowu" unicode="&#58948;" d="M512 832C264.576 832 64 631.424 64 384s200.576-448 448-448 448 200.576 448 448S759.424 832 512 832z m201.135-633.133c-9.143-9.143-23.925-9.184-33.151 0.043L520.002 358.89200000000005 360.019 198.90800000000002c-9.167-9.166-23.945-9.249-33.151-0.043-9.144 9.143-9.184 23.926 0.043 33.151L486.894 392 326.912 551.981c-9.167 9.167-9.25 23.945-0.044 33.152 9.143 9.143 23.926 9.183 33.152-0.044l159.981-159.981 159.979 159.98c9.167 9.166 23.945 9.249 33.151 0.043 9.144-9.143 9.184-23.926-0.043-33.151L553.11 392l159.981-159.981c9.168-9.166 9.251-23.946 0.044-33.152z"  horiz-adv-x="1024" />

    
    <glyph glyph-name="tousu" unicode="&#58889;" d="M547.930625 298.19906249999997c0-16.854375-15.4734375-30.5165625-34.56-30.5165625v0c-19.0903125 0-34.56375 13.66125-34.56375 30.5165625v329.25c0 16.854375 15.474375 30.515625 34.56375 30.515625v0c19.0903125 0 34.56-13.66125 34.56-30.515625v-329.25zM514.6465625-65.01656249999996v0c-22.3059375 0-44.544375 6.706875-72.136875 21.718125-332.150625 180.9853125-330.7640625 305.87625-327.0553125 639.7096875 0.4321875 38.87625 0.9009375 80.8734375 0.9009375 126.4565625 0 15.2709375 9.9834375 28.738125 24.5934375 33.1753125 53.5396875 16.258125 111.515625 31.4934375 172.299375 45.2540625 60.661875 13.7259375 127.8084375 22.531875 199.561875 26.17125 1.8365625 0.050625 3.6571875 0.03375 5.476875-0.174375 141.3103125-15.3571875 247.5009375-36 366.523125-71.20125 14.713125-4.35 24.804375-17.8509375 24.83625-33.1734375 0.103125-50.64375 0.74625-96.781875 1.31625-139.0546875 4.8215625-346.415625 6.27375-450.9815625-324.6271875-627.7190625-27.4209375-14.6259375-49.5178125-21.163125-71.686875-21.163125zM177.4334375 704.8584375c-0.12375-36.898125-0.5146875-71.4309375-0.87-103.8721875-3.73125-336.894375-4.7428125-427.4371875 298.1653125-592.490625 17.51625-9.525 29.454375-13.6096875 39.954375-13.6096875 10.4090625 0 22.7559375 4.1034375 39.988125 13.3265625 301.0078125 160.753125 300.015 232.9153125 295.18125 579.7190625-0.4978125 36.045-1.0490625 74.8246875-1.2609375 116.6971875-106.90875 30.200625-206.2153125 48.7471875-335.0278125 62.8509375-68.4309375-3.6046875-132.208125-12.02625-189.6234375-25.0115625-51.2146875-11.5996875-100.3715625-24.2128125-146.506875-37.606875zM474.2178125 166.7521875c0 0 0 0 0 0 0-21.6253125 17.5303125-39.15375 39.15375-39.15375 21.6253125 0 39.15375 17.5303125 39.15375 39.15375 0 0 0 0 0 0 0 0 0 0 0 0 0 21.6234375-17.5303125 39.15375-39.15375 39.15375-21.6234375 0-39.15375-17.5303125-39.15375-39.15375s0 0 0 0z"  horiz-adv-x="1025" />

    
    <glyph glyph-name="fenlei" unicode="&#59894;" d="M64 433.7728h398.2272V832H64v-398.2272zM64-64h398.2272V334.2272H64V-64z m497.7728 0H960V334.2272H561.7728V-64zM960 632.8896L760.8896 832 561.7728 632.8896l199.1104-199.1104L960 632.8896z"  horiz-adv-x="1024" />

    
    <glyph glyph-name="sousuo1" unicode="&#59130;" d="M959.83616-28.03711999999996l-187.35104 187.35104c138.07616 158.53568 132.096 399.72864-18.78016 550.58432a401.28512 401.28512 0 0 1-285.696 118.33344 401.44896 401.44896 0 0 1-285.696-118.33344c-157.53216-157.53216-157.53216-413.81888 0-571.37152a401.408 401.408 0 0 1 285.696-118.33344c102.03136 0 197.98016 37.94944 272.65024 106.51648l186.96192-186.96192 32.21504 32.21504z m-491.8272 94.06464a355.88096 355.88096 0 0 0-253.29664 104.91904c-139.65312 139.65312-139.65312 366.91968 0 506.5728a355.88096 355.88096 0 0 0 253.29664 104.91904c95.70304 0 185.63072-37.25312 253.29664-104.91904 139.65312-139.65312 139.65312-366.91968 0-506.5728a355.81952 355.81952 0 0 0-253.29664-104.91904z"  horiz-adv-x="1024" />

    
    <glyph glyph-name="zuanshi1" unicode="&#58886;" d="M295.28 822.112h624.15253333v-329.41333333H295.28zM607.3568 510.03626667h468.11413333L607.3568-62.10346665999998zM798.06933333 510.03626667h346.752L607.3568-62.10346665999998zM798.06933333 510.03626667h346.752L919.43253333 822.112zM607.3568 510.03626667H139.24266667l468.11413333-572.13973333zM416.6432 510.03626667H69.8912l537.4656-572.13973333zM416.6432 510.03626667H69.8912L295.28106667 822.112zM798.06933333 510.03626667H416.6432L607.3568 804.7744z"  horiz-adv-x="1202" />

    
    <glyph glyph-name="rexian-" unicode="&#59005;" d="M407.918 278.35299999999995c80.093-79.67 172.834-155.855 209.216-119.03 52.092 52.574 84.182 98.402 199.828 5.983 115.627-92.522 27.355-154.727-23.166-205.711-58.256-58.82-276.416-4.11-492.642 210.928C84.97 385.66 28.686 603.86 87.024 662.6800000000001c50.481 50.985 111.92 139.96 205.006 24.737 93.086-115.163 47.72-147.695-4.413-200.291-36.38-36.764 40.249-129.064 120.301-208.773M524.109 658.53s-24.173 3.746-41.094-13.215c-17.444-17.445-18.17-47.5 0.161-65.931 10.818-10.878 26.148-13.154 26.148-13.154 29.814-5.6 74.754-15.128 122.556-63.031 47.802-47.882 57.27-92.925 62.828-122.818 0 0 2.358-15.351 13.195-26.167 18.292-18.392 48.346-17.628 65.75-0.222 16.921 16.96 13.175 41.235 13.175 41.235-9.468 60.513-38.736 123.704-88.997 174.064-50.28 50.382-113.33 79.71-173.722 89.239m226.68-36.178c87.646-87.789 125.014-187.481 112.827-268.258 0 0-4.23-25.604 12.45-42.323 18.733-18.794 48.506-17.706 66.071-0.16 11.281 11.362 13.738 29.734 13.738 29.734 10.052 69.819-2.619 210.242-139.113 347.06C680.184 825.242 540.083 837.894 470.486 827.842c0 0-18.332-2.438-29.652-13.74-17.525-17.604-18.633-47.438 0.161-66.233 16.64-16.7 42.182-12.45 42.182-12.45 80.475 12.25 179.945-25.24 267.612-113.066m0 0"  horiz-adv-x="1024" />

    
    <glyph glyph-name="icon07-copy" unicode="&#59495;" d="M708.351 888.012c8.039 0 16.124-2.73 22.755-8.314 14.932-12.577 16.841-34.879 4.265-49.81l-374.452-444.557 357.171-427.131c12.525-14.977 10.537-37.269-4.441-49.794-14.977-12.524-37.269-10.535-49.793 4.442l-376.203 449.89c-11.007 13.162-10.973 32.327 0.080 45.45l393.563 467.25c6.993 8.302 16.989 12.576 27.054 12.577z"  horiz-adv-x="1024" />

    
    <glyph glyph-name="toudi" unicode="&#58907;" d="M44.03313778 382.06577777999996l285.43772444-108.32327112 91.52512-302.50097778L586.98296889 185.32124444l254.41052444-80.66730666 140.20721778 694.35733333L44.032 382.06577777999996zM481.49617778 242.71758222000005L433.24871111 73.15911111000003l-46.99249778 199.25105777 595.34449778 526.59996445-500.10453333-556.29368889z"  horiz-adv-x="1024" />

    
    <glyph glyph-name="Untitled-" unicode="&#59009;" d="M144.94403076-7.7999267599999484a24.69451904 24.69451904 0 0 0-17.47650146 42.19573975L861.60418701 768.55718994a24.69451904 24.69451904 0 1 0 34.95300293-34.95300293l-734.13665771-734.16137695a24.64508057 24.64508057 0 0 0-17.47650147-7.24273682zM879.08068848-7.7999267599999484a24.64508057 24.64508057 0 0 0-17.47650147 7.24273682L127.4675293 733.60418701A24.69451904 24.69451904 0 1 0 162.42053222 768.55718994l734.13665772-734.13665771a24.69451904 24.69451904 0 0 0-17.47650147-42.22045898z"  horiz-adv-x="1024" />

    
    <glyph glyph-name="icons64x6479" unicode="&#58885;" d="M1008.337 781.68133333l-995.676-309.55 282.064-230.635c-1.014-2.547-1.533-5.323-1.43-8.203l7.167-216.819c0.394-11.434 9.942-20.382 21.375-20.029 0.166 0 0.31 0.103 0.455 0.124 5.551 0 11.061 2.093 15.121 6.463l108.533 114.811 185.151-151.388 377.238 815.228zM866.621 694.25433333l-548.759-418.188-219.367 179.35 768.126 238.837zM340.229 66.68133333000003l-4.681 141.405 78.211-63.961-73.53-77.444zM350.835 249.09833332999995l564.481 430.181-299.36-646.958-265.121 216.779z"  horiz-adv-x="1024" />

    
    <glyph glyph-name="amount_minus" unicode="&#59810;" d="M967.86311815 609.6872884300001c0-8.96814484-2.98699821-14.94750391-8.96814485-20.92865054l-418.49257081-418.49257081c-11.96229324-11.96229324-29.89500781-11.96229324-41.83942554 0l-418.49257085 418.49257081c-11.96229324 11.96229324-11.96229324 29.89500781 0 41.83942557s29.89500781 11.96229324 41.83942557 0l397.57285805-397.57285806 397.57285803 397.57285806c11.96229324 11.96229324 29.89500781 11.96229324 41.83942555 0 5.97757152-5.97757152 8.96814484-14.94750391 8.96814485-20.92865054z"  horiz-adv-x="1024" />

    
    <glyph glyph-name="renmai2" unicode="&#58945;" d="M949.27337188 462.65625c-23.71875 32.4375-51.9375 56.34375-73.03125001 71.53125 16.6875 28.5 25.6875 61.125 25.6875 94.5 0 103.21875-84 187.21875-187.21874999 187.21875-33.1875 0-65.25-8.625-93.56250001-25.03125-32.34375 16.3125-68.34375 25.03125-105.5625 25.03125-38.0625 0-74.8125-9-107.71875-26.0625-28.78125 17.15625-61.5 26.0625-95.4375 26.0625-103.21875 0-187.125-84-187.12499999-187.21875 0-33.375 9-66 25.68749999-94.5-21.09375-15.1875-49.3125-39.09375-73.03124999-71.53125-50.0625-68.53125-59.4375-147.1875-27.09375-227.4375l0.09375-0.1875c13.125-31.78125 47.90625-55.96875 106.03125-73.59375 3-28.78125 10.5-58.03125 22.3125-87.46875l0.84375-2.0625 1.125-1.875c29.8125-50.4375 94.78125-85.5 193.12499999-104.0625 67.21875-12.65625 130.5-13.875 151.78125001-13.875h2.53124999c15.9375 0 82.59375 5.25 150.75000001 21.5625 39.1875 9.375 72.1875 20.90625 98.15624999 34.125 35.625 18.1875 58.96875 40.3125 69.5625 66l0.09375 0.1875c11.8125 29.34375 19.3125 58.5 22.3125 87.28125 58.59375 17.625 93.5625 41.90625 106.78125 73.78125l0.09375 0.1875c32.25 80.25 22.875 158.90625-27.1875 227.4375zM157.36712187 223.40625c-32.25 11.90625-48 24.65625-51.9375 33.9375C80.77337188 318.5625 87.52337187 375.9375 125.49212187 427.875c31.3125 42.84375 73.5 67.96875 81.65625 72.5625l31.21875 17.625-23.34375 27.1875c-19.96875 23.25-30.9375 52.875-30.9375 83.34375 0 70.78125 57.5625 128.34375 128.34375 128.34375 13.96875 0 27.65625-2.25 40.59375-6.5625-1.125-1.03125-2.15625-2.0625-3.28125-3.1875-44.25-44.25-68.625-103.125-68.625-165.75 0-43.59375 12.28125-86.15625 34.96875-123-24.375-16.59375-60.46875-44.71875-92.25-84.09375-37.78125-46.78125-60-97.6875-66.46875-150.9375z m635.15625-127.3125c-4.875-11.71875-27-41.15625-126.9375-65.15625-63.5625-15.28125-124.6875-19.875-136.875-19.875h-0.375c-17.15625-0.09375-78.1875 0.65625-142.96875 12.84375-78.375 14.8125-130.96875 40.40625-152.15625 74.25-33.84375 85.78125-21.9375 165.84375 35.625 238.03125 38.0625 47.8125 84.9375 77.15625 99.1875 85.5l48 6-34.78125 41.4375c-26.4375 31.5-40.96875 71.4375-40.96875 112.5 0 96.75 78.65625 175.40625 175.40625 175.40625 96.75 0 175.40625-78.65625 175.40625-175.40625 0-41.71875-15-82.21875-42.28125-114l-23.34375-27.1875 31.21875-17.625c10.875-6.09375 67.125-39.65625 108.84375-96.65625 51.09375-70.21875 60.1875-147.5625 27-230.0625z m129.1875 161.25c-3.9375-9.375-19.875-22.3125-52.59375-34.21875-0.5625 4.875-1.3125 9.65625-2.15625 14.4375-7.59375 43.125-25.78125 84.5625-54 123.1875-32.71875 44.8125-72.1875 76.6875-99.46875 95.625C737.11712188 493.6875 749.86712188 537.09375 749.86712188 581.53125c0 62.625-24.375 121.40625-68.62500001 165.75-1.40625 1.40625-2.8125 2.71875-4.21875 4.125 12.09375 3.65625 24.75 5.625 37.6875 5.625 70.78125 0 128.34375-57.5625 128.34375001-128.34375 0-30.46875-10.96875-60.09375-30.93750001-83.34375l-23.34375-27.1875 31.21875-17.625c8.15625-4.59375 50.4375-29.71875 81.65625-72.5625 37.96875-52.03125 44.71875-109.40625 20.0625-170.625z"  horiz-adv-x="1027" />

    
    <glyph glyph-name="laiyuan" unicode="&#58909;" d="M59.515-71.7l-21.453 72.11c-13.353 43.203-21.043 92.867-21.043 144.323v0.42c0 270.52 213.197 490.476 475.238 490.476 8.581 0 24.259-0.246 41.339-0.748v158.003c0 32.676 19.558 47.36 39.025 47.36 10.895 0 21.862-4.372 32.758-13.036l378.706-302.961c14.602-11.715 23.020-28.385 23.020-45.793 0-17.326-8.417-33.997-23.101-45.711l-378.716-302.961c-9.1-8.078-21.119-13.046-34.296-13.154-17.846 0.037-37.404 14.721-37.404 47.479v149.34c-14.676 0.489-31.929 0.768-49.247 0.768-0.194 0-0.387-0-0.581-0-181.351-0.020-346.614-126.177-402.719-313.795l-21.453-72.11-0.072-0.010zM492.257 590.828c-237.292-0.082-430.356-200.079-430.356-445.778 0-20.050 1.321-39.936 3.881-59.566 78.797 166.257 242.074 273.51 426.557 273.51 12.38 0 39.598-0.492 64.604-1.485l21.617-0.829v-190.915l377.385 301.978c4.045 3.215 6.267 7.014 6.267 10.721 0 3.625-2.222 7.424-6.267 10.557l-377.385 302.049v-202.721l-23.429 0.993c-21.914 0.911-47.647 1.434-73.503 1.434l10.629 0.051z"  horiz-adv-x="1024" />

    
    <glyph glyph-name="xiangmu1" unicode="&#58968;" d="M512-7.098666669999943l-408.66133333 187.456c1.38346667-0.86826667-36.1792 16.0704-62.88533334 31.2448 0-22.66453333 5.73013333-64.22933333 26.99413334-75.44106666l400.10133333-178.96106667c35.35466667-16.58773333 50.60053333-16.58773333 88.928 0l400.10133333 178.96106667c19.73013333 9.16693333 26.96746667 52.23466667 26.96746667 75.44106666-25.7152-12.8-62.15466667-31.08586667-62.85866667-31.2448l-408.688-187.456zM67.44746667 511.09333333l400.10133333-178.95893333c35.35466667-16.58666667 50.60053333-16.58666667 88.928 0L956.57813333 511.09333333c29.4656 13.6768 30.45333333 71.79306667 0 88.3808l-400.10133333 210.21866667c-31.44746667 18.53973333-53.57333333 17.584-88.928 0L67.44746667 599.47413333c-30.45546667-19.50506667-31.44533333-71.76106667 0-88.3808zM512 773.9904a3.712 3.712 0 0 0 1.1136-0.5952l407.57333333-218.10666667L512 383.93813333l-408.6592 171.34933334 408.6592 218.70186666zM513.11146667 773.39413333l-1.1136 0.5952c2.3872-2.7456 2.34133333-1.54346667 1.1136-0.5952zM67.44746667 323.6512l400.10133333-178.97173333c35.35466667-16.58666667 50.60053333-16.58666667 88.928 0l400.10133333 178.97173333c19.73013333 9.1552 26.96746667 52.2176 26.96746667 75.40266667-25.7152-12.81066667-62.15466667-31.06026667-62.85866667-31.21813334L511.99893333 180.35733332999996l-408.6592 187.47733334c1.3824-0.86613333-36.18026667 16.04266667-62.8864 31.21813333 0-22.6688 5.73013333-64.1984 26.99413334-75.4016z"  horiz-adv-x="1024" />

    
    <glyph glyph-name="amount_plus" unicode="&#59811;" d="M84.62832673 193.75150042999996c0 8.40763579 2.80031082 14.01328492 8.4076358 19.62060988l392.33678514 392.33678513c11.21464991 11.21464991 28.02656982 11.21464991 39.22446144 0l392.33678517-392.33678513c11.21464991-11.21464991 11.21464991-28.02656982 0-39.22446147s-28.02656982-11.21464991-39.22446147 0l-372.72455442 372.72455443-372.72455441-372.72455443c-11.21464991-11.21464991-28.02656982-11.21464991-39.22446145 0-5.6039733 5.6039733-8.40763579 14.01328492-8.4076358 19.62060988z"  horiz-adv-x="1024" />

    
    <glyph glyph-name="zhanghu1" unicode="&#59057;" d="M904.77250078-13.546545479999963a36.19791367 36.19791367 0 0 0-72.39582734 0l-0.32992891 3.39355441c0 1.41398101 0.2827962 2.78082932 0.47132701 4.24194301-22.67082874 158.64866851-158.88433202 275.34923395-324.83856905 277.18740926-1.36684831-0.0471327-2.5451658-0.23566351-3.9120141-0.23566351-1.31971561 0-2.5451658 0.18853081-3.9120141 0.23566351-164.02179632-1.885308-298.96271668-115.94644224-323.80164964-271.90854684 0.8012559-3.01649281 1.41398101-6.17438372 1.41398099-9.52080543l0.28279621-3.39355441a36.76350606 36.76350606 0 1 0-73.52701215 0v0.3770616H103.5165992c0.0942654 1.03691939 0.3299289 2.0267061 0.47132699 3.06362552 0 3.06362551 0.47132701 5.93872021 1.13118481 8.76668221 18.85308003 146.34703379 117.03049434 264.60297831 250.65169908 315.60055982-77.76895517 49.819264-128.57800586 137.76888237-128.57800583 238.25579899C227.19280425 707.96082756 348.13531267 833.9936676 503.76748839 833.9936676c155.63217571 0 276.62181684-126.03284005 276.62181684-281.47648494 0-100.4869166-50.7147853-188.38940227-128.48374044-238.20866628 132.67855075-50.57338721 230.47890347-167.50961613 250.32177019-312.39553622 1.36684831-3.770616 2.21523692-7.82402821 2.21523689-12.06597123l0.32992891-3.39355441z m-188.05947337 565.96946273a212.94553902 212.94553902 0 0 1-213.03980441 212.85127361 212.94553902 212.94553902 0 0 1-213.03980444-212.85127361 212.89840633 212.89840633 0 0 1 213.03980444-212.75700822 212.89840633 212.89840633 0 0 1 213.03980441 212.75700822z"  horiz-adv-x="1024" />

    
    <glyph glyph-name="tishi1" unicode="&#58897;" d="M941.144 76.58399999999995L550.736 747.0527999999999c-12.3552 21.3984-39.7248 28.728-61.1232 16.3728a44.712 44.712 0 0 1-16.3728-16.3728l-391.1568-671.76a44.736 44.736 0 0 1 38.7456-67.1136h782.3376c24.7056 0 44.7408 20.0352 44.7408 44.7456 0 8.688-2.472 16.7952-6.7632 23.6592z m-389.1984 48.9072a39.9456 39.9456 0 0 0-79.8912 0v1.2768a39.9456 39.9456 0 1 0 79.8912 0v-1.2768z m-6.3744 116.2368c0-21.192-12.3792-38.376-33.5712-38.376s-33.576 17.184-33.576 38.376l-9.6 261.6432c0 21.192 21.984 43.1712 43.176 43.1712s43.1712-21.9792 43.1712-43.1712l-9.6-261.6432z"  horiz-adv-x="1024" />

    
    <glyph glyph-name="shoucang" unicode="&#59010;" d="M707.584 802.816c-77.312 0-148.992-38.912-196.608-102.912-47.104 64-119.296 102.912-196.608 102.912-139.264 0-252.416-123.904-252.416-275.968 0-90.624 40.448-154.624 73.216-205.824 94.72-148.992 333.312-333.824 343.552-341.504 9.728-7.68 20.992-11.264 32.256-11.264s22.528 3.584 32.256 11.264c10.24 7.68 248.32 193.024 343.552 341.504 32.768 51.2 73.216 115.2 73.216 205.824 0 152.064-113.152 275.968-252.416 275.968z m114.176-480.256c-87.552-122.88-272.896-263.168-282.112-269.824-8.704-6.656-18.944-10.24-28.672-10.24-10.24 0-19.968 3.072-28.672 10.24-9.216 6.656-190.976 148.48-282.112 274.944-29.184 46.08-75.776 103.424-75.776 184.32 0 136.192 75.776 231.936 200.192 231.936 69.12 0 144.384-66.048 186.368-123.392 42.496 57.344 117.248 123.392 186.368 123.392 124.928 0 205.824-95.744 205.824-231.936 0-80.896-51.712-143.872-81.408-189.44z"  horiz-adv-x="1024" />

    
    <glyph glyph-name="liulan" unicode="&#58898;" d="M511.707429 569.977905c-97.816381-1.560381-176.323048-83.772952-176.323048-184.710095 0-100.888381 78.506667-183.100952 176.323048-184.710096 98.937905 0 179.102476 82.70019 179.102476 184.710096 0 102.009905-80.164571 184.710095-179.102476 184.710095z m0-316.854857c-69.87581 1.316571-125.805714 60.074667-125.805715 132.144762s55.929905 130.876952 125.805715 132.193523c45.83619 0 88.112762-25.209905 111.030857-66.072381 22.918095-40.911238 22.918095-91.282286 0-132.193523a127.512381 127.512381 0 0 0-111.030857-66.072381zM511.707429 725.333333C229.571048 725.333333 0 474.014476 0 385.26781 0 307.102476 230.253714 42.66666699999996 511.707429 42.66666699999996c281.453714 0 511.707429 260.681143 511.707428 342.601143 0 69.973333-213.674667 340.065524-511.707428 340.065523z m0-630.198857c-236.007619 0-462.60419 232.740571-462.604191 290.03581 0 50.41981 207.530667 284.91581 462.604191 284.915809 269.458286 0 462.60419-241.078857 462.60419-284.915809 0-44.763429-208.164571-290.03581-462.60419-290.03581z"  horiz-adv-x="1024" />

    
    <glyph glyph-name="204" unicode="&#58880;" d="M929.792 554.24c-4.672 5.312-15.424 17.92-29.632 34.496-42.752 49.984-114.24 133.568-147.2 169.088-13.632 14.656-30.528 32.96-63.296 34.24-2.368 0.064-9.664 0.32-101.568 0.32-104.512 0-252.096-0.32-251.968-0.32-15.616 0-39.424-3.52-65.728-34.304C251.2 735.232 221.248 700.672 190.976 665.7280000000001 152.448 621.184 113.344 576 94.912 554.1120000000001c-32-37.056-32.768-88.64-2.112-134.784l2.048-2.688c36.224-42.176 115.008-132.736 208-239.744l144.64-166.336c26.688-30.784 47.808-34.944 64.896-34.944 17.984 0 38.272 4.224 64.896 34.88l149.568 172.096c88 101.184 162.496 186.816 203.328 234.368C957.504 449.856 965.248 511.488 929.792 554.24zM888 452.544c-40.448-47.104-114.88-132.672-202.816-233.728L535.616 46.72000000000003c-13.824-15.872-19.264-15.872-23.232-15.872-3.776 0-9.408 0-23.232 15.872l-144.64 166.4C252.608 318.84799999999996 174.656 408.512 137.92 451.2 121.728 476.416 121.28 500.096 136.96 518.2719999999999c18.56 22.08 57.472 67.008 95.808 111.296C263.104 664.64 293.12 699.264 312.448 721.92c12.736 14.912 19.328 14.912 23.744 14.912 0 0 147.52 0.32 251.904 0.32 79.104 0 96.32-0.192 99.456-0.32 8.576-0.32 11.84-2.496 24.896-16.576 32.192-34.688 103.232-117.76 145.728-167.424 14.4-16.832 25.28-29.568 29.568-34.432C903.936 498.944 900.736 467.904 888 452.544zM681.216 500.224l-169.408-216.96L342.656 500.8C340.928 503.552 340.416 503.552 337.92 503.552l-82.56 0 0-38.144 1.984 0c15.616 0 21.376-4.032 27.776-12.608C285.824 451.904 286.528 450.944 288 449.152c37.184-50.56 183.04-227.776 224.192-283.008 41.152 55.232 186.88 232.576 224.576 283.712 0.896 1.088 1.6 2.048 2.24 2.88 6.464 8.576 12.224 12.672 27.776 12.672l1.856 0L768.64 503.616l-82.24 0C684.096 503.616 683.392 503.616 681.216 500.224z"  horiz-adv-x="1024" />

    
    <glyph glyph-name="tishi" unicode="&#58894;" d="M512 820.54257778a436.54257778 436.54257778 0 1 1 0-873.08515556 436.54257778 436.54257778 0 0 1 0 873.08515556z m0-691.18634667a54.61333333 54.61333333 0 1 0-0.07281778 109.15384889A54.61333333 54.61333333 0 0 0 512 129.35623110999995z m54.54051555 229.15754667c0-29.12711111-25.48622222-54.61333333-54.54051555-54.61333333-29.12711111 0-54.61333333 25.48622222-54.61333333 54.61333333V587.74414222c0 29.05429333 25.48622222 54.61333333 54.61333333 54.61333333 29.05429333 0 54.54051555-21.84533333 54.54051555-54.61333333V358.51377778000005z"  horiz-adv-x="1024" />

    
    <glyph glyph-name="jiantou-right" unicode="&#58996;" d="M348.70613333 819.8144c-8.192 14.7456-3.2768 33.86026667 12.01493334 42.05226667 14.7456 8.192 33.86026667 3.2768 42.05226666-12.01493334l277.98186667-495.34293333c6.00746667-10.37653333 4.9152-22.9376-1.6384-32.768l-277.98186667-399.7696c-9.8304-14.19946667-28.94506667-17.47626667-43.14453333-7.64586667-14.19946667 9.8304-17.47626667 28.94506667-7.64586667 43.14453334l266.51306667 383.93173333-268.15146667 478.4128z"  horiz-adv-x="1024" />

    
    <glyph glyph-name="tishi2" unicode="&#58950;" d="M512 859.71626666c-257.48366222 0-466.03377778-208.55011555-466.03377778-466.03377778s208.55011555-466.03377778 466.03377778-466.03377777 466.03377778 208.55011555 466.03377778 466.03377777-208.55011555 466.03377778-466.03377778 466.03377778z m0-871.48316444c-223.69621333 0-405.44938667 181.75317333-405.44938667 405.44938666 0 223.69621333 181.75317333 405.44938667 405.44938667 405.44938667 223.69621333 0 405.44938667-181.75317333 405.44938667-405.44938667 0-223.69621333-181.75317333-405.44938667-405.44938667-405.44938666z m0 0M512 221.24999111c18.64135111 0 33.78744889 15.14609778 33.78744889 33.78744889V653.49632c0 18.64135111-15.14609778 33.78744889-33.78744889 33.78744888-18.64135111 0-33.78744889-15.14609778-33.78744889-33.78744888V253.87235554999995c0-17.47626667 15.14609778-32.62236445 33.78744889-32.62236444z m0 0M470.05696 142.02424887999996c0-23.30168889 18.64135111-41.94304 41.94304-41.94304s41.94304 18.64135111 41.94304 41.94304S535.30168889 183.96728887999996 512 183.96728887999996s-41.94304-18.64135111-41.94304-41.94304z m0 0"  horiz-adv-x="1024" />

    
    <glyph glyph-name="huiyuan" unicode="&#58949;" d="M663.9 748.7H362.1c-34.4 0-67.4-14-91.8-38.9L62.5 497c-19.3-19.8-19.3-51.9 0-71.7l404.1-413.7c25.6-26.2 67.2-26.2 92.8 0l404.1 413.7c19.3 19.8 19.3 51.9 0 71.7L755.6 709.8c-24.3 24.9-57.3 38.9-91.7 38.9zM62.5 497c-19.3-19.8-19.3-51.9 0-71.7l8.7-8.9c2.1 38.6 9.4 75.9 21.1 111.1L62.5 497zM963.5 497L861.3 601.6c34.9-61.5 54.8-132.6 54.8-208.3 0-5.6-0.1-11.2-0.3-16.8l47.7 48.8c19.3 19.8 19.3 51.9 0 71.7zM160 596.8l-67.7-69.3c-11.8-35.2-19-72.4-21.1-111.1l41.4-42.4c-1.4 12.8-2.1 25.9-2.1 39.1 0 67 18 129.7 49.5 183.7zM861.3 601.6L755.6 709.8c-24.3 24.9-57.3 38.9-91.8 38.9h-45C749 693 840.1 563.7 840.1 413.2c0-51.3-10.6-100.2-29.8-144.5l105.4 107.9c0.2 5.6 0.3 11.2 0.3 16.8 0.1 75.6-19.8 146.7-54.7 208.2zM427.8 51.3l38.8-39.7c25.6-26.2 67.2-26.2 92.8 0l68.3 69.9c-46.4-21.3-98-33.2-152.3-33.2-16.2 0-32 1-47.6 3zM618.8 748.7H362.1c-34.4 0-67.4-14-91.8-38.9L160 596.8c-31.5-53.9-49.5-116.7-49.5-183.7 0-13.2 0.7-26.2 2.1-39.1l64.3-65.8c-17 38.1-26.4 80.3-26.4 124.8 0 169.5 137.4 306.9 306.9 306.9S764.3 602.5 764.3 433s-137.5-306.9-307-306.9c-47 0-91.5 10.6-131.3 29.4l101.8-104.2c15.6-2 31.4-3.1 47.5-3.1 54.4 0 106 11.9 152.3 33.2l182.8 187.1c19.1 44.3 29.8 93.2 29.8 144.5 0 150.7-91.2 279.9-221.4 335.7zM764.3 433c0 169.5-137.4 306.9-306.9 306.9s-307-137.4-307-306.9c0-44.4 9.5-86.6 26.4-124.8L326 155.5c39.8-18.9 84.3-29.4 131.3-29.4 169.5 0 307 137.4 307 306.9z m-574 19.9c0 137.5 111.5 249 249 249s249-111.5 249-249-111.5-249-249-249-249 111.5-249 249zM688.3 452.9c0 137.5-111.5 249-249 249s-249-111.5-249-249 111.5-249 249-249 249 111.5 249 249z m-267-171.2c-105.5 0-191.1 85.5-191.1 191.1s85.5 191.1 191.1 191.1 191.1-85.5 191.1-191.1-85.6-191.1-191.1-191.1zM421.3 663.8c-105.5 0-191.1-85.5-191.1-191.1s85.5-191.1 191.1-191.1 191.1 85.5 191.1 191.1-85.6 191.1-191.1 191.1z m-18-304.3c-73.5 0-133.1 59.6-133.1 133.1s59.6 133.1 133.1 133.1 133.1-59.6 133.1-133.1-59.6-133.1-133.1-133.1zM403.3 492.6m-133.1 0a133.1 133.1 0 1 1 266.2 0 133.1 133.1 0 1 1-266.2 0ZM663.9 730.7c14.7 0 29-2.9 42.6-8.7s25.8-14.1 36.3-24.8l207.9-212.8c12.5-12.8 12.5-33.7 0-46.5L546.5 24.2c-9-9.2-20.9-14.3-33.5-14.3-12.6 0-24.5 5.1-33.5 14.3L75.4 437.9c-12.5 12.8-12.5 33.7 0 46.5l207.9 212.8c10.4 10.7 22.6 19 36.3 24.8 13.6 5.8 27.9 8.7 42.6 8.7h301.7m0 18H362.1c-34.4 0-67.4-14-91.8-38.9L62.5 497c-19.3-19.8-19.3-51.9 0-71.7l404.1-413.7c12.8-13.1 29.6-19.7 46.4-19.7s33.6 6.6 46.4 19.7l404.1 413.7c19.3 19.8 19.3 51.9 0 71.7L755.6 709.8c-24.3 24.9-57.3 38.9-91.7 38.9zM585.5 596.6h-145c-16.5 0-32.4-6.7-44.1-18.6l-99.9-101.6c-9.3-9.5-9.3-24.8 0-34.2l194.2-197.6a31.21 31.21 0 0 1 44.6 0l194.2 197.6c9.3 9.5 9.3 24.8 0 34.2L629.6 578c-11.7 11.9-27.6 18.6-44.1 18.6zM222 549.2c-4.6 0-9.2 1.7-12.7 5.2-7.1 7-7.1 18.4-0.1 25.5l87.4 88.1c7 7.1 18.4 7.1 25.5 0.1s7.1-18.4 0.1-25.5l-87.4-88.1c-3.5-3.5-8.2-5.3-12.8-5.3zM172.4 499.2c-4.6 0-9.2 1.7-12.7 5.2-7.1 7-7.1 18.4-0.1 25.5l7.4 7.5c7 7.1 18.4 7.1 25.5 0.1s7.1-18.4 0.1-25.5l-7.4-7.5c-3.6-3.6-8.2-5.3-12.8-5.3z"  horiz-adv-x="1024" />

    
    <glyph glyph-name="huiyuan1" unicode="&#58975;" d="M663.9 748.7H362.1c-34.4 0-67.4-14-91.8-38.9L62.5 497c-19.3-19.8-19.3-51.9 0-71.7l404.1-413.7c25.6-26.2 67.2-26.2 92.8 0l404.1 413.7c19.3 19.8 19.3 51.9 0 71.7L755.6 709.8c-24.3 24.9-57.3 38.9-91.7 38.9zM62.5 497c-19.3-19.8-19.3-51.9 0-71.7l8.7-8.9c2.1 38.6 9.4 75.9 21.1 111.1L62.5 497zM963.5 497L861.3 601.6c34.9-61.5 54.8-132.6 54.8-208.3 0-5.6-0.1-11.2-0.3-16.8l47.7 48.8c19.3 19.8 19.3 51.9 0 71.7zM160 596.8l-67.7-69.3c-11.8-35.2-19-72.4-21.1-111.1l41.4-42.4c-1.4 12.8-2.1 25.9-2.1 39.1 0 67 18 129.7 49.5 183.7zM861.3 601.6L755.6 709.8c-24.3 24.9-57.3 38.9-91.8 38.9h-45C749 693 840.1 563.7 840.1 413.2c0-51.3-10.6-100.2-29.8-144.5l105.4 107.9c0.2 5.6 0.3 11.2 0.3 16.8 0.1 75.6-19.8 146.7-54.7 208.2zM427.8 51.3l38.8-39.7c25.6-26.2 67.2-26.2 92.8 0l68.3 69.9c-46.4-21.3-98-33.2-152.3-33.2-16.2 0-32 1-47.6 3zM618.8 748.7H362.1c-34.4 0-67.4-14-91.8-38.9L160 596.8c-31.5-53.9-49.5-116.7-49.5-183.7 0-13.2 0.7-26.2 2.1-39.1l64.3-65.8c-17 38.1-26.4 80.3-26.4 124.8 0 169.5 137.4 306.9 306.9 306.9S764.3 602.5 764.3 433s-137.5-306.9-307-306.9c-47 0-91.5 10.6-131.3 29.4l101.8-104.2c15.6-2 31.4-3.1 47.5-3.1 54.4 0 106 11.9 152.3 33.2l182.8 187.1c19.1 44.3 29.8 93.2 29.8 144.5 0 150.7-91.2 279.9-221.4 335.7zM764.3 433c0 169.5-137.4 306.9-306.9 306.9s-307-137.4-307-306.9c0-44.4 9.5-86.6 26.4-124.8L326 155.5c39.8-18.9 84.3-29.4 131.3-29.4 169.5 0 307 137.4 307 306.9z m-574 19.9c0 137.5 111.5 249 249 249s249-111.5 249-249-111.5-249-249-249-249 111.5-249 249zM688.3 452.9c0 137.5-111.5 249-249 249s-249-111.5-249-249 111.5-249 249-249 249 111.5 249 249z m-267-171.2c-105.5 0-191.1 85.5-191.1 191.1s85.5 191.1 191.1 191.1 191.1-85.5 191.1-191.1-85.6-191.1-191.1-191.1zM421.3 663.8c-105.5 0-191.1-85.5-191.1-191.1s85.5-191.1 191.1-191.1 191.1 85.5 191.1 191.1-85.6 191.1-191.1 191.1z m-18-304.3c-73.5 0-133.1 59.6-133.1 133.1s59.6 133.1 133.1 133.1 133.1-59.6 133.1-133.1-59.6-133.1-133.1-133.1zM403.3 492.6m-133.1 0a133.1 133.1 0 1 1 266.2 0 133.1 133.1 0 1 1-266.2 0ZM663.9 730.7c14.7 0 29-2.9 42.6-8.7 13.6-5.8 25.8-14.1 36.3-24.8l207.9-212.8c12.5-12.8 12.5-33.7 0-46.5L546.5 24.2c-9-9.2-20.9-14.3-33.5-14.3-12.6 0-24.5 5.1-33.5 14.3L75.4 437.9c-12.5 12.8-12.5 33.7 0 46.5l207.9 212.8c10.4 10.7 22.6 19 36.3 24.8 13.6 5.8 27.9 8.7 42.6 8.7h301.7m0 18H362.1c-34.4 0-67.4-14-91.8-38.9L62.5 497c-19.3-19.8-19.3-51.9 0-71.7l404.1-413.7c12.8-13.1 29.6-19.7 46.4-19.7 16.8 0 33.6 6.6 46.4 19.7l404.1 413.7c19.3 19.8 19.3 51.9 0 71.7L755.6 709.8c-24.3 24.9-57.3 38.9-91.7 38.9zM585.5 596.6h-145c-16.5 0-32.4-6.7-44.1-18.6l-99.9-101.6c-9.3-9.5-9.3-24.8 0-34.2l194.2-197.6a31.21 31.21 0 0 1 44.6 0l194.2 197.6c9.3 9.5 9.3 24.8 0 34.2L629.6 578c-11.7 11.9-27.6 18.6-44.1 18.6zM222 549.2c-4.6 0-9.2 1.7-12.7 5.2-7.1 7-7.1 18.4-0.1 25.5l87.4 88.1c7 7.1 18.4 7.1 25.5 0.1 7.1-7 7.1-18.4 0.1-25.5l-87.4-88.1c-3.5-3.5-8.2-5.3-12.8-5.3zM172.4 499.2c-4.6 0-9.2 1.7-12.7 5.2-7.1 7-7.1 18.4-0.1 25.5l7.4 7.5c7 7.1 18.4 7.1 25.5 0.1 7.1-7 7.1-18.4 0.1-25.5l-7.4-7.5c-3.6-3.6-8.2-5.3-12.8-5.3z"  horiz-adv-x="1024" />

    
    <glyph glyph-name="duoxuan2" unicode="&#58930;" d="M885.24070986 414.03086171h-330.33947885v330.33947883c0 24.02468937-18.87654164 42.90123101-42.90123101 42.90123104s-42.90123101-18.87654164-42.90123101-42.90123104v-330.33947883h-330.33947885c-24.02468937 0-42.90123101-18.87654164-42.90123103-42.901231s18.87654164-42.90123101 42.90123103-42.90123105h330.33947885v-330.33947882c0-24.02468937 18.87654164-42.90123101 42.90123101-42.90123103s42.90123101 18.87654164 42.90123101 42.90123103v330.33947882h330.33947885c24.02468937 0 42.90123101 18.87654164 42.90123103 42.90123105s-19.73456627 42.90123101-42.90123103 42.901231z"  horiz-adv-x="1024" />

    
    <glyph glyph-name="huiyuan2" unicode="&#58936;" d="M663.864 748.667H362.136c-34.421 0-67.432-13.998-91.773-38.916l-207.86-212.78c-19.338-19.798-19.338-51.893 0-71.691l404.102-413.673c25.623-26.229 67.165-26.229 92.788 0L963.495 425.28c19.338 19.798 19.338 51.893 0 71.691l-207.862 212.78c-24.337 24.918-57.348 38.916-91.769 38.916zM62.504 496.972c-19.338-19.798-19.338-51.893 0-71.691l8.667-8.873c2.085 38.628 9.355 75.876 21.127 111.063l-29.794-30.499z m900.992 0L861.313 601.573c34.885-61.489 54.811-132.578 54.811-208.323 0-5.627-0.113-11.228-0.33-16.802l47.704 48.833c19.337 19.798 19.337 51.893-0.002 71.691zM160.006 596.782l-67.708-69.311c-11.772-35.187-19.041-72.435-21.127-111.063l41.377-42.357a368.9 368.9 0 0 0-2.075 39.073c0 66.966 18.046 129.715 49.533 183.658z m701.307 4.791L755.635 709.752c-24.339 24.917-57.35 38.916-91.771 38.916h-45.019C749 692.926 840.189 563.677 840.189 413.125c0-51.345-10.611-100.209-29.752-144.528l105.356 107.851c0.218 5.574 0.33 11.175 0.33 16.802 0 75.746-19.925 146.835-54.81 208.323zM427.792 51.341l38.814-39.733c25.623-26.229 67.165-26.229 92.788 0l68.278 69.895c-46.362-21.333-97.961-33.236-152.341-33.236a368.23 368.23 0 0 0-47.539 3.074zM618.845 748.667H362.136c-34.421 0-67.432-13.998-91.773-38.916l-110.358-112.97c-31.487-53.943-49.533-116.692-49.533-183.657 0-13.2 0.708-26.235 2.075-39.073l64.293-65.816c-16.982 38.122-26.436 80.336-26.436 124.763 0 169.51 137.415 306.925 306.925 306.925s306.925-137.415 306.925-306.925S626.839 126.074 457.33 126.074c-46.985 0-91.495 10.573-131.306 29.445L427.792 51.34a368.23 368.23 0 0 1 47.539-3.074c54.38 0 105.979 11.903 152.341 33.236l182.765 187.094c19.14 44.319 29.752 93.184 29.752 144.528 0 150.553-91.189 279.802-221.344 335.543zM764.254 432.999c0 169.51-137.415 306.925-306.925 306.925S150.405 602.509 150.405 432.999c0-44.427 9.453-86.642 26.436-124.763L326.024 155.52c39.81-18.872 84.321-29.445 131.306-29.445 169.509-0.001 306.924 137.414 306.924 306.924z m-573.917 19.875c0 137.514 111.477 248.991 248.991 248.991S688.32 590.388 688.32 452.874 576.842 203.882 439.328 203.882 190.337 315.359 190.337 452.874zM688.32 452.874c0 137.514-111.477 248.991-248.991 248.991S190.337 590.388 190.337 452.874s111.477-248.991 248.991-248.991S688.32 315.359 688.32 452.874zM421.327 281.69c-105.518 0-191.058 85.54-191.058 191.058s85.54 191.058 191.058 191.058 191.058-85.54 191.058-191.058S526.846 281.69 421.327 281.69zM421.327 663.806c-105.518 0-191.058-85.54-191.058-191.058s85.54-191.058 191.058-191.058 191.058 85.54 191.058 191.058-85.539 191.058-191.058 191.058z m-18.001-304.308c-73.523 0-133.125 59.602-133.125 133.125s59.602 133.125 133.125 133.125 133.125-59.602 133.125-133.125-59.602-133.125-133.125-133.125zM270.201 492.622a133.125 133.125 0 1 1 266.25 0 133.125 133.125 0 1 1-266.25 0zM663.864 730.667c14.702 0 29.048-2.922 42.639-8.686 13.62-5.775 25.818-14.122 36.256-24.808L950.62 484.394c12.532-12.83 12.532-33.706 0.001-46.535L546.518 24.186c-8.977-9.189-20.881-14.25-33.518-14.25-12.638 0-24.542 5.061-33.518 14.25L75.38 437.859c-12.532 12.83-12.532 33.706-0.001 46.535l207.86 212.78c10.439 10.686 22.637 19.033 36.257 24.808 13.591 5.763 27.937 8.686 42.639 8.686h301.729m0 17.999H362.136c-34.421 0-67.432-13.998-91.772-38.915l-207.86-212.78c-19.338-19.798-19.338-51.893 0-71.691l404.102-413.673c12.811-13.115 29.603-19.672 46.394-19.672s33.583 6.557 46.394 19.672l404.102 413.673c19.338 19.798 19.338 51.893 0 71.691l-207.862 212.78c-24.338 24.917-57.349 38.915-91.77 38.915zM585.506 596.63H440.494c-16.543 0-32.407-6.686-44.106-18.584L296.49 476.417c-9.294-9.454-9.294-24.783 0-34.237l194.213-197.576a31.154 31.154 0 0 1 44.593 0L729.509 442.18c9.294 9.454 9.294 24.783 0 34.237l-99.896 101.629c-11.698 11.898-27.564 18.584-44.107 18.584zM222.012 549.195a17.94 17.94 0 0 0-12.677 5.222c-7.057 7.001-7.102 18.398-0.101 25.456l87.419 88.112c7.002 7.057 18.398 7.102 25.456 0.1 7.057-7.001 7.102-18.398 0.101-25.456l-87.419-88.112a17.945 17.945 0 0 0-12.779-5.322z m-49.641-50.035a17.94 17.94 0 0 0-12.677 5.222c-7.058 7.001-7.103 18.398-0.101 25.456l7.428 7.487c7.002 7.058 18.399 7.103 25.456 0.101 7.058-7.001 7.103-18.398 0.101-25.456l-7.428-7.487a17.946 17.946 0 0 0-12.779-5.323z"  horiz-adv-x="1024" />

    
    <glyph glyph-name="zuanshi2" unicode="&#58964;" d="M506.311111 16.497778100000005l10.61925899-10.80888899 9.29185202 9.291852 206.127408 489.244444H283.117037L506.311111 16.497778100000005zM43.425185 492.46814811l-0.189629-0.18963001 239.881481 11.946667-239.691852-11.75703699zM283.117037 504.2251851L510.86222201 762.6903701H197.025185l86.091852-258.465185zM732.34962999 504.2251851l86.28148101 258.465185H510.86222201l221.48740798-258.46518499zM732.34962999 504.2251851l270.79111101-12.325926-184.50963 270.791111-86.28148101-258.465185zM197.025185 762.6903701L30.72 491.8992591l12.705185 0.56888901 239.691852 11.757037-86.091852 258.46518499zM283.117037 504.2251851h449.23259301L510.86222201 762.6903701 283.117037 504.2251851zM732.34962999 504.2251851l-206.127408-489.24444399-9.291852-21.61777801L1003.140741 491.8992591l-270.79111101 12.32592601zM283.117037 504.2251851l-239.881481-11.946667-6.25777801-0.379259L516.93037001-6.637036899999998l-10.61925901 23.134815-223.194074 487.727407z"  horiz-adv-x="1024" />

    
    <glyph glyph-name="jiantou-left" unicode="&#59496;" d="M675.29386667-51.81439999999998c8.192-14.7456 3.27680001-33.86026667-12.01493334-42.05226667-14.7456-8.192-33.86026667-3.27680001-42.05226667 12.01493334l-277.98186667 495.34293333c-6.00746667 10.37653333-4.91520001 22.9376 1.63840001 32.768l277.98186667 399.7696c9.8304 14.19946667 28.94506667 17.47626667 43.14453333 7.64586667 14.19946667-9.8304 17.47626667-28.94506667 7.64586667-43.14453334l-266.51306667-383.93173333 268.15146667-478.4128z"  horiz-adv-x="1024" />

    
    <glyph glyph-name="zuanshi1-copy" unicode="&#59895;" d="M295.28 822.112h624.15253333v-329.41333333H295.28zM607.3568 510.03626667h468.11413333L607.3568-62.10346665999998zM798.06933333 510.03626667h346.752L607.3568-62.10346665999998zM798.06933333 510.03626667h346.752L919.43253333 822.112zM607.3568 510.03626667H139.24266667l468.11413333-572.13973333zM416.6432 510.03626667H69.8912l537.4656-572.13973333zM416.6432 510.03626667H69.8912L295.28106667 822.112zM798.06933333 510.03626667H416.6432L607.3568 804.7744z"  horiz-adv-x="1202" />

    


  </font>
</defs>
</svg>
